<svg height="512pt" viewBox="0 -4 512.00066 512" width="512pt" xmlns="http://www.w3.org/2000/svg"><path d="m397.398438 245.910156c-3.335938-78.09375-69.347657-138.695312-147.441407-135.355468-78.089843 3.335937-138.691406 69.347656-135.355469 147.441406 3.339844 78.089844 69.351563 138.691406 147.441407 135.355468 78.09375-3.339843 138.691406-69.351562 135.355469-147.441406zm0 0" fill="#fdc202"/><path d="m356.429688 266.554688c-6.441407 44.375-40.875 77.914062-82.796876 85.320312-10.367187 1.847656-21.199218 2.078125-32.183593.480469-28.042969-4.070313-53.285157-19.84375-69.25-43.265625-14.339844-21.03125-20.214844-46.503906-16.558594-71.714844 3.898437-26.816406 18.003906-50.511719 39.730469-66.71875 21.710937-16.207031 48.441406-22.980469 75.257812-19.082031.957032.140625 1.898438.292969 2.84375.453125 26.890625 4.691406 50.976563 20.1875 66.410156 42.816406 14.335938 21.03125 20.214844 46.5 16.546876 71.710938zm0 0" fill="#ffdd81"/><path d="m273.632812 351.875c-10.367187 1.847656-21.199218 2.078125-32.183593.480469-28.042969-4.070313-53.285157-19.84375-69.25-43.265625-14.339844-21.03125-20.214844-46.503906-16.558594-71.714844 3.898437-26.816406 18.003906-50.511719 39.730469-66.71875 21.710937-16.207031 48.441406-22.980469 75.257812-19.082031.957032.140625 1.898438.292969 2.84375.453125-15.390625 2.714844-30.042968 9.011718-42.933594 18.628906-21.726562 16.207031-35.832031 39.902344-39.730468 66.71875-3.65625 25.210938 2.21875 50.683594 16.558594 71.714844 15.394531 22.585937 39.417968 38.0625 66.265624 42.785156zm0 0" fill="#fed22b"/><path d="m36.710938 187.785156c5.746093 0 9.433593-6.261718 6.519531-11.304687l-15.097657-26.152344c52.550782 30.339844 49.289063 28.894531 52.0625 28.894531 7.679688 0 10.4375-10.214844 3.773438-14.0625l-48.296875-27.886718h30.195313c4.160156 0 7.535156-3.371094 7.535156-7.535157 0-4.164062-3.375-7.535156-7.535156-7.535156h-58.324219c-5.796875 0-9.417969 6.289063-6.523438 11.304687l29.160157 50.507813c1.394531 2.417969 3.925781 3.769531 6.53125 3.769531zm0 0"/><path d="m81.457031 325.679688-48.300781 27.886718 15.097656-26.152344c2.082032-3.605468.847656-8.214843-2.757812-10.296874-3.605469-2.078126-8.214844-.84375-10.292969 2.757812l-29.160156 50.507812c-2.898438 5.023438.738281 11.304688 6.523437 11.304688h58.324219c4.160156 0 7.535156-3.371094 7.535156-7.535156 0-4.164063-3.375-7.535156-7.535156-7.535156h-30.195313l48.296876-27.886719c3.605468-2.082031 4.839843-6.691407 2.757812-10.292969-2.078125-3.605469-6.691406-4.839844-10.292969-2.757812zm0 0"/><path d="m504.453125 122.203125h-58.320313c-4.160156 0-7.535156 3.371094-7.535156 7.535156 0 4.164063 3.375 7.535157 7.535156 7.535157h30.195313l-48.296875 27.886718c-6.664062 3.847656-3.898438 14.0625 3.773438 14.0625 2.777343 0-.492188 1.445313 52.0625-28.894531l-15.097657 26.152344c-2.082031 3.601562-.847656 8.210937 2.757813 10.292969 3.609375 2.082031 8.214844.84375 10.292968-2.757813l29.160157-50.507813c2.902343-5.023437-.738281-11.304687-6.527344-11.304687zm0 0"/><path d="m476.796875 319.878906c-2.078125-3.605468-6.691406-4.839844-10.292969-2.757812-3.605468 2.078125-4.839844 6.6875-2.757812 10.292968l15.097656 26.152344-48.300781-27.886718c-3.605469-2.082032-8.214844-.847657-10.292969 2.757812-2.082031 3.605469-.847656 8.214844 2.757812 10.292969l48.296876 27.886719h-30.195313c-4.164063 0-7.535156 3.375-7.535156 7.535156 0 4.164062 3.371093 7.539062 7.535156 7.539062h58.320313c5.800781 0 9.421874-6.292968 6.527343-11.304687zm0 0"/><path d="m218.046875 64.566406c3.605469 2.078125 8.214844.84375 10.296875-2.757812l15.09375-26.152344v55.773438c0 4.160156 3.375 7.535156 7.539062 7.535156 4.160157 0 7.535157-3.375 7.535157-7.535156v-55.773438l15.097656 26.152344c1.394531 2.414062 3.929687 3.765625 6.535156 3.765625 5.746094 0 9.429688-6.257813 6.515625-11.304688l-29.15625-50.507812c-2.902344-5.019531-10.160156-5.011719-13.054687 0l-29.160157 50.507812c-2.082031 3.605469-.847656 8.214844 2.757813 10.296875zm0 0"/><path d="m293.953125 439.328125c-3.609375-2.082031-8.214844-.847656-10.296875 2.757813l-15.097656 26.148437v-55.769531c0-4.164063-3.371094-7.539063-7.535156-7.539063-4.164063 0-7.535157 3.375-7.535157 7.539063v55.769531l-15.097656-26.148437c-2.078125-3.605469-6.691406-4.839844-10.292969-2.757813-3.605468 2.082031-4.839844 6.6875-2.757812 10.292969l29.160156 50.507812c2.898438 5.023438 10.15625 5.011719 13.050781 0l29.160157-50.507812c2.082031-3.605469.84375-8.210938-2.757813-10.292969zm0 0"/><path d="m359.007812 144.199219c-59.671874-57.03125-153.964843-54.675781-210.753906 4.742187-57.019531 59.660156-54.679687 153.960938 4.742188 210.75 68.019531 65.011719 178.210937 51.394532 228.679687-27.5625 2.238281-3.507812 1.214844-8.167968-2.292969-10.410156-3.507812-2.242188-8.167968-1.214844-10.40625 2.292969-24.105468 37.714843-66.277343 61.925781-113.078124 61.925781-71.933594 0-130.6875-56.34375-133.765626-128.269531-3.179687-74.34375 54.125-136.425781 128.148438-139.589844 97.800781-4.183594 163.960938 92.691406 131.394531 180.441406-1.449219 3.902344.539063 8.238281 4.441407 9.6875 3.902343 1.445313 8.238281-.542969 9.6875-4.445312 19.558593-52.703125 8.488281-116.28125-36.796876-159.5625zm0 0"/><path d="m253.5 298.773438c-11.996094 0-17.398438-5.304688-21.34375-9.179688-2.183594-2.144531-3.910156-3.839844-6.140625-3.839844-4.015625 0-7.457031 4.894532-7.457031 8.898438 0 7.117187 11.71875 17.539062 29.90625 19.386718v15.625c0 4.164063 3.375 7.539063 7.535156 7.539063 4.164062 0 7.539062-3.375 7.539062-7.539063v-16.167968c17.273438-3.191406 27.308594-15.554688 27.308594-34.433594 0-44.496094-52.878906-31.394531-52.878906-56.734375 0-12.570313 11.070312-15.210937 20.351562-15.210937 8.871094 0 13.699219 2.488281 17.222657 4.304687 1.953125 1.007813 3.5 1.804687 5.121093 1.804687 4.785157 0 7.292969-5.796874 7.292969-8.902343 0-7.570313-13.382812-11.066407-24.417969-11.90625v-18.191407c0-4.164062-3.375-7.535156-7.535156-7.535156-4.164062 0-7.539062 3.371094-7.539062 7.535156 0 .28125 0 18.59375.003906 18.875-11.542969 2.097657-27.015625 8.933594-27.015625 30.511719 0 40.097657 52.878906 26.011719 52.878906 56.734375 0 11.882813-7.398437 18.425782-20.832031 18.425782zm0 0"/><path d="m162.105469 212.800781c-3.957031-1.308593-8.214844.84375-9.519531 4.792969-21.433594 64.953125 21.226562 132.554688 87.777343 142.222656 93.472657 13.585938 159.058594-91.011718 105.742188-169.21875-42.445313-62.261718-134.605469-64.035156-178.9375-1.804687-2.417969 3.390625-1.625 8.09375 1.761719 10.511719 3.390624 2.410156 8.097656 1.621093 10.511718-1.765626 38.25-53.691406 117.664063-52.0625 154.210938 1.550782 45.949218 67.402344-10.753906 157.476562-91.121094 145.8125-57.238281-8.320313-94.164062-66.421875-75.632812-122.585938 1.304687-3.949218-.839844-8.210937-4.792969-9.515625zm0 0"/></svg>