<?xml version="1.0" encoding="iso-8859-1"?>
<!-- Generator: Adobe Illustrator 19.0.0, SVG Export Plug-In . SVG Version: 6.00 Build 0)  -->
<svg version="1.1" id="Capa_1" xmlns="http://www.w3.org/2000/svg" xmlns:xlink="http://www.w3.org/1999/xlink" x="0px" y="0px"
	 viewBox="0 0 464 464" style="enable-background:new 0 0 464 464;" xml:space="preserve">
<path style="fill:#DDA137;" d="M392,80h40c17.672,0,32,14.328,32,32v240c0,17.672-14.328,32-32,32H32c-17.672,0-32-14.328-32-32V112
	c0-17.672,14.328-32,32-32h40"/>
<polygon style="fill:#B53C33;" points="304,432 160,432 184,384 280,384 "/>
<path style="fill:#DDA137;" d="M312,464H152c-17.672,0-32-14.328-32-32l0,0h224l0,0C344,449.672,329.672,464,312,464z"/>
<path style="fill:#201F2D;" d="M264,240h8c13.256,0,24,10.744,24,24l0,0c0,13.256-10.744,24-24,24H64c-13.256,0-24-10.744-24-24l0,0
	c0-13.256,10.744-24,24-24h8"/>
<path style="fill:#DDD8CE;" d="M264,288H72V32c0-17.672,14.328-32,32-32h192l0,0c-17.672,0-32,14.328-32,32V288z"/>
<path style="fill:#B53C33;" d="M360,192h-96V32c0-17.672,14.328-32,32-32l0,0c17.672,0,32,14.328,32,32v128
	C328,177.672,342.328,192,360,192L360,192z"/>
<path style="fill:#512869;" d="M360,192L360,192c-17.672,0-32-14.328-32-32V64h64v96C392,177.672,377.672,192,360,192z"/>
<g>
	<rect y="320" style="fill:#201F2D;" width="464" height="16"/>
	<polygon style="fill:#201F2D;" points="360,235.312 376,251.312 429.656,197.656 418.344,186.344 376,228.688 360,212.688 
		322.344,250.344 333.656,261.656 	"/>
	<polygon style="fill:#201F2D;" points="384,268.688 368,252.688 330.344,290.344 341.656,301.656 368,275.312 384,291.312 
		437.656,237.656 426.344,226.344 	"/>
	<rect x="104" y="40" style="fill:#201F2D;" width="80" height="16"/>
	<rect x="200" y="40" style="fill:#201F2D;" width="32" height="16"/>
	<rect x="104" y="72" style="fill:#201F2D;" width="80" height="16"/>
	<rect x="200" y="72" style="fill:#201F2D;" width="32" height="16"/>
	<rect x="104" y="104" style="fill:#201F2D;" width="80" height="16"/>
	<rect x="200" y="104" style="fill:#201F2D;" width="32" height="16"/>
	<rect x="104" y="136" style="fill:#201F2D;" width="80" height="16"/>
	<rect x="200" y="136" style="fill:#201F2D;" width="32" height="16"/>
	<rect x="104" y="168" style="fill:#201F2D;" width="80" height="16"/>
	<rect x="200" y="168" style="fill:#201F2D;" width="32" height="16"/>
	<rect x="104" y="200" style="fill:#201F2D;" width="80" height="16"/>
	<rect x="200" y="200" style="fill:#201F2D;" width="32" height="16"/>
	<rect x="104" y="232" style="fill:#201F2D;" width="80" height="16"/>
	<rect x="200" y="232" style="fill:#201F2D;" width="32" height="16"/>
</g>
<g>
</g>
<g>
</g>
<g>
</g>
<g>
</g>
<g>
</g>
<g>
</g>
<g>
</g>
<g>
</g>
<g>
</g>
<g>
</g>
<g>
</g>
<g>
</g>
<g>
</g>
<g>
</g>
<g>
</g>
</svg>
