<svg id="Layer_1" enable-background="new 0 0 512.089 512.089" height="512" viewBox="0 0 512.089 512.089" width="512" xmlns="http://www.w3.org/2000/svg"><g><path d="m308.336 451.642h-98.793v-287.714c0-4.387 3.556-7.943 7.943-7.943h82.908c4.387 0 7.943 3.556 7.943 7.943v287.714z" fill="#4d2ee6"/><path d="m300.393 155.985h-42.834v295.657h50.777v-287.714c0-4.387-3.556-7.943-7.943-7.943z" fill="#012f7e"/><path d="m146.834 451.595h-79.07c-5.613 0-10.163-4.55-10.163-10.163v-231.683c0-5.613 4.55-10.163 10.163-10.163h79.07c5.613 0 10.163 4.55 10.163 10.163v231.682c0 5.614-4.55 10.164-10.163 10.164z" fill="#ff4a4a"/><path d="m445.421 449.229h-80.242c-5.314 0-9.622-4.308-9.622-9.622v-212.158c0-5.314 4.308-9.622 9.622-9.622h80.242c5.314 0 9.622 4.308 9.622 9.622v212.157c.001 5.315-4.307 9.623-9.622 9.623z" fill="#8ee26b"/><g><path d="m497.054 456.697h-482.019c-8.304 0-15.035-7.203-15.035-16.088s6.731-16.089 15.035-16.089h482.019c8.303 0 15.035 7.203 15.035 16.089 0 8.885-6.732 16.088-15.035 16.088z" fill="#444"/></g><path d="m497.054 424.52h-239.492v32.177h239.492c8.303 0 15.035-7.203 15.035-16.089 0-8.885-6.732-16.088-15.035-16.088z" fill="#292929"/><path d="m505.207 112.47c.498-6.269-3.156-13.967-11.523-15.914l-48.465-11.78c-8.053-1.963-16.162 2.982-18.118 11.032-1.957 8.05 2.982 16.162 11.032 18.118l13.708 3.332-38.858 23.979-147.336-83.88c-4.236-2.413-9.384-2.616-13.794-.543l-146.454 68.742-70.011-43.693c-7.027-4.389-16.28-2.245-20.667 4.783-4.386 7.027-2.244 16.28 4.784 20.667l76.936 48.015c4.317 2.695 9.707 3.017 14.315.854l146.805-68.907 148.31 84.435c3.859 2.024 9.238 3.073 15.299-.271l47.105-29.069-3.137 14.692c-3.452 19.543 24.213 25.093 29.338 6.266l10.398-48.694c.118-.684.162-.588.333-2.164z" fill="#ffe470"/><path d="m493.684 96.555-48.465-11.78c-8.053-1.963-16.162 2.982-18.118 11.032-1.957 8.05 2.982 16.162 11.032 18.118l13.708 3.332-38.858 23.979-147.336-83.88c-2.493-1.42-5.3-2.053-8.088-1.929v31.847l.002-.001 148.31 84.435c3.858 2.024 9.238 3.073 15.299-.271l47.105-29.069-3.137 14.692c-3.452 19.543 24.213 25.093 29.338 6.266l10.398-48.694c.119-.683.164-.587.334-2.163.497-6.268-3.157-13.967-11.524-15.914z" fill="#ffda2d"/></g></svg>